<?xml version="1.0" encoding="utf-8"?>
<!-- Generator: Adobe Illustrator 24.0.3, SVG Export Plug-In . SVG Version: 6.00 Build 0)  -->
<svg version="1.1" id="Ebene_1" xmlns="http://www.w3.org/2000/svg" xmlns:xlink="http://www.w3.org/1999/xlink" x="0px" y="0px"
	 viewBox="0 0 512 512" style="enable-background:new 0 0 512 512;" xml:space="preserve">
<style type="text/css">
	.st0{fill:#222323;stroke:#000000;stroke-miterlimit:10;}
	.st1{fill:#68B75E;stroke:#000000;stroke-miterlimit:10;}
	.st2{fill:#FFFFFF;}
	.st3{fill:#E94A5D;stroke:#000000;stroke-miterlimit:10;}
</style>
<rect class="st0" width="512" height="512"/>
<g>
	<path class="st1" d="M157,168.2H34.5c-6.6,0-12-5.4-12-12V33.7c0-6.6,5.4-12,12-12H157c6.6,0,12,5.4,12,12v122.5
		C169,162.8,163.6,168.2,157,168.2z"/>
	<g>
		<path class="st2" d="M60.7,82.7v8.3h8.1v-8.3h4.9v21.7h-4.9v-9.1h-8.1v9.1h-4.9V82.7H60.7z"/>
		<path class="st2" d="M93.2,96.4c0,5.8-4.1,8.4-8.3,8.4c-4.6,0-8.1-3-8.1-8.1s3.3-8.3,8.4-8.3C90,88.3,93.2,91.6,93.2,96.4z
			 M81.8,96.5c0,2.7,1.1,4.7,3.2,4.7c1.9,0,3.1-1.9,3.1-4.7c0-2.4-0.9-4.7-3.1-4.7C82.7,91.8,81.8,94.2,81.8,96.5z"/>
		<path class="st2" d="M96.2,100.1c0.9,0.5,2.8,1.2,4.2,1.2c1.5,0,2.1-0.5,2.1-1.3c0-0.8-0.5-1.2-2.3-1.8c-3.3-1.1-4.5-2.9-4.5-4.7
			c0-2.9,2.5-5.2,6.4-5.2c1.8,0,3.5,0.4,4.4,0.9l-0.9,3.4c-0.7-0.4-2.1-0.9-3.4-0.9c-1.2,0-1.9,0.5-1.9,1.3c0,0.7,0.6,1.1,2.5,1.8
			c3,1,4.2,2.5,4.3,4.9c0,2.9-2.3,5.1-6.8,5.1c-2.1,0-3.9-0.5-5.1-1.1L96.2,100.1z"/>
		<path class="st2" d="M115.7,84.2v4.5h3.5v3.6h-3.5V98c0,1.9,0.5,2.8,1.9,2.8c0.6,0,1.1-0.1,1.4-0.1l0,3.7
			c-0.6,0.3-1.8,0.4-3.2,0.4c-1.6,0-2.9-0.5-3.7-1.4c-0.9-0.9-1.4-2.4-1.4-4.7v-6.4h-2.1v-3.6h2.1v-3.4L115.7,84.2z"/>
		<path class="st2" d="M127.7,87.8L127.7,87.8l-4.1,1.9l-0.8-3.7l5.5-2.6h4.1v20.9h-4.7V87.8z"/>
	</g>
	<path class="st1" d="M317.2,168.2H194.8c-6.6,0-12-5.4-12-12V33.7c0-6.6,5.4-12,12-12h122.5c6.6,0,12,5.4,12,12v122.5
		C329.2,162.8,323.8,168.2,317.2,168.2z"/>
	<g>
		<path class="st2" d="M220.9,82.7v8.3h8.1v-8.3h4.9v21.7H229v-9.1h-8.1v9.1H216V82.7H220.9z"/>
		<path class="st2" d="M253.4,96.4c0,5.8-4.1,8.4-8.3,8.4c-4.6,0-8.1-3-8.1-8.1s3.3-8.3,8.4-8.3C250.2,88.3,253.4,91.6,253.4,96.4z
			 M242,96.5c0,2.7,1.1,4.7,3.2,4.7c1.9,0,3.1-1.9,3.1-4.7c0-2.4-0.9-4.7-3.1-4.7C242.9,91.8,242,94.2,242,96.5z"/>
		<path class="st2" d="M256.4,100.1c0.9,0.5,2.8,1.2,4.2,1.2c1.5,0,2.1-0.5,2.1-1.3c0-0.8-0.5-1.2-2.3-1.8c-3.3-1.1-4.5-2.9-4.5-4.7
			c0-2.9,2.5-5.2,6.4-5.2c1.8,0,3.5,0.4,4.4,0.9l-0.9,3.4c-0.7-0.4-2.1-0.9-3.4-0.9c-1.2,0-1.9,0.5-1.9,1.3c0,0.7,0.6,1.1,2.5,1.8
			c3,1,4.2,2.5,4.3,4.9c0,2.9-2.3,5.1-6.8,5.1c-2.1,0-3.9-0.5-5.1-1.1L256.4,100.1z"/>
		<path class="st2" d="M275.9,84.2v4.5h3.5v3.6h-3.5V98c0,1.9,0.5,2.8,1.9,2.8c0.6,0,1.1-0.1,1.4-0.1l0,3.7
			c-0.6,0.3-1.8,0.4-3.2,0.4c-1.6,0-2.9-0.5-3.7-1.4c-0.9-0.9-1.4-2.4-1.4-4.7v-6.4H269v-3.6h2.1v-3.4L275.9,84.2z"/>
		<path class="st2" d="M281.6,104.4v-3l2.7-2.4c4.6-4.1,6.8-6.4,6.9-8.9c0-1.7-1-3.1-3.4-3.1c-1.8,0-3.4,0.9-4.5,1.7l-1.4-3.5
			c1.6-1.2,4-2.2,6.9-2.2c4.7,0,7.3,2.8,7.3,6.6c0,3.5-2.5,6.3-5.6,9l-1.9,1.6v0.1h7.9v4H281.6z"/>
	</g>
	<path class="st1" d="M477.5,168.2H355c-6.6,0-12-5.4-12-12V33.7c0-6.6,5.4-12,12-12h122.5c6.6,0,12,5.4,12,12v122.5
		C489.5,162.8,484.1,168.2,477.5,168.2z"/>
	<g>
		<path class="st2" d="M381.1,82.7v8.3h8.1v-8.3h4.9v21.7h-4.9v-9.1h-8.1v9.1h-4.9V82.7H381.1z"/>
		<path class="st2" d="M413.7,96.4c0,5.8-4.1,8.4-8.3,8.4c-4.6,0-8.1-3-8.1-8.1s3.3-8.3,8.4-8.3C410.4,88.3,413.7,91.6,413.7,96.4z
			 M402.3,96.5c0,2.7,1.1,4.7,3.2,4.7c1.9,0,3.1-1.9,3.1-4.7c0-2.4-0.9-4.7-3.1-4.7C403.1,91.8,402.3,94.2,402.3,96.5z"/>
		<path class="st2" d="M416.7,100.1c0.9,0.5,2.8,1.2,4.2,1.2c1.5,0,2.1-0.5,2.1-1.3c0-0.8-0.5-1.2-2.3-1.8c-3.3-1.1-4.5-2.9-4.5-4.7
			c0-2.9,2.5-5.2,6.4-5.2c1.8,0,3.5,0.4,4.4,0.9l-0.9,3.4c-0.7-0.4-2.1-0.9-3.4-0.9c-1.2,0-1.9,0.5-1.9,1.3c0,0.7,0.6,1.1,2.5,1.8
			c3,1,4.2,2.5,4.3,4.9c0,2.9-2.3,5.1-6.8,5.1c-2.1,0-3.9-0.5-5.1-1.1L416.7,100.1z"/>
		<path class="st2" d="M436.1,84.2v4.5h3.5v3.6h-3.5V98c0,1.9,0.5,2.8,1.9,2.8c0.6,0,1.1-0.1,1.4-0.1l0,3.7
			c-0.6,0.3-1.8,0.4-3.2,0.4c-1.6,0-2.9-0.5-3.7-1.4c-0.9-0.9-1.4-2.4-1.4-4.7v-6.4h-2.1v-3.6h2.1v-3.4L436.1,84.2z"/>
		<path class="st2" d="M442.7,99.6c0.9,0.5,2.9,1.3,4.9,1.3c2.5,0,3.8-1.2,3.8-2.8c0-2.1-2.1-3-4.2-3h-2v-3.5h1.9
			c1.6,0,3.7-0.6,3.7-2.4c0-1.3-1-2.2-3.1-2.2c-1.7,0-3.5,0.7-4.4,1.3l-1-3.5c1.3-0.8,3.8-1.6,6.5-1.6c4.5,0,7,2.4,7,5.2
			c0,2.2-1.3,4-3.8,4.9v0.1c2.5,0.5,4.5,2.4,4.5,5.1c0,3.7-3.3,6.4-8.6,6.4c-2.7,0-5-0.7-6.2-1.5L442.7,99.6z"/>
	</g>
	<path class="st1" d="M157,329.2H34.5c-6.6,0-12-5.4-12-12V194.8c0-6.6,5.4-12,12-12H157c6.6,0,12,5.4,12,12v122.5
		C169,323.8,163.6,329.2,157,329.2z"/>
	<g>
		<path class="st2" d="M60.7,243.7v8.3h8.1v-8.3h4.9v21.7h-4.9v-9.1h-8.1v9.1h-4.9v-21.7H60.7z"/>
		<path class="st2" d="M93.2,257.4c0,5.8-4.1,8.4-8.3,8.4c-4.6,0-8.1-3-8.1-8.1s3.3-8.3,8.4-8.3C90,249.4,93.2,252.7,93.2,257.4z
			 M81.8,257.6c0,2.7,1.1,4.7,3.2,4.7c1.9,0,3.1-1.9,3.1-4.7c0-2.4-0.9-4.7-3.1-4.7C82.7,252.8,81.8,255.2,81.8,257.6z"/>
		<path class="st2" d="M96.2,261.2c0.9,0.5,2.8,1.2,4.2,1.2c1.5,0,2.1-0.5,2.1-1.3s-0.5-1.2-2.3-1.8c-3.3-1.1-4.5-2.9-4.5-4.7
			c0-2.9,2.5-5.2,6.4-5.2c1.8,0,3.5,0.4,4.4,0.9l-0.9,3.4c-0.7-0.4-2.1-0.9-3.4-0.9c-1.2,0-1.9,0.5-1.9,1.3c0,0.7,0.6,1.1,2.5,1.8
			c3,1,4.2,2.5,4.3,4.9c0,2.9-2.3,5.1-6.8,5.1c-2.1,0-3.9-0.5-5.1-1.1L96.2,261.2z"/>
		<path class="st2" d="M115.7,245.2v4.5h3.5v3.6h-3.5v5.7c0,1.9,0.5,2.8,1.9,2.8c0.6,0,1.1-0.1,1.4-0.1l0,3.7
			c-0.6,0.3-1.8,0.4-3.2,0.4c-1.6,0-2.9-0.5-3.7-1.4c-0.9-0.9-1.4-2.4-1.4-4.7v-6.4h-2.1v-3.6h2.1v-3.4L115.7,245.2z"/>
		<path class="st2" d="M130.1,265.5v-5h-9.3v-3.2l7.9-12.8h6v12.3h2.5v3.7h-2.5v5H130.1z M130.1,256.8v-4.6c0-1.3,0.1-2.5,0.2-3.9
			h-0.1c-0.7,1.4-1.2,2.6-1.9,3.9l-2.8,4.6v0.1H130.1z"/>
	</g>
	<path class="st1" d="M317.2,329.2H194.8c-6.6,0-12-5.4-12-12V194.8c0-6.6,5.4-12,12-12h122.5c6.6,0,12,5.4,12,12v122.5
		C329.2,323.8,323.8,329.2,317.2,329.2z"/>
	<g>
		<path class="st2" d="M220.9,243.7v8.3h8.1v-8.3h4.9v21.7H229v-9.1h-8.1v9.1H216v-21.7H220.9z"/>
		<path class="st2" d="M253.4,257.4c0,5.8-4.1,8.4-8.3,8.4c-4.6,0-8.1-3-8.1-8.1s3.3-8.3,8.4-8.3
			C250.2,249.4,253.4,252.7,253.4,257.4z M242,257.6c0,2.7,1.1,4.7,3.2,4.7c1.9,0,3.1-1.9,3.1-4.7c0-2.4-0.9-4.7-3.1-4.7
			C242.9,252.8,242,255.2,242,257.6z"/>
		<path class="st2" d="M256.4,261.2c0.9,0.5,2.8,1.2,4.2,1.2c1.5,0,2.1-0.5,2.1-1.3s-0.5-1.2-2.3-1.8c-3.3-1.1-4.5-2.9-4.5-4.7
			c0-2.9,2.5-5.2,6.4-5.2c1.8,0,3.5,0.4,4.4,0.9l-0.9,3.4c-0.7-0.4-2.1-0.9-3.4-0.9c-1.2,0-1.9,0.5-1.9,1.3c0,0.7,0.6,1.1,2.5,1.8
			c3,1,4.2,2.5,4.3,4.9c0,2.9-2.3,5.1-6.8,5.1c-2.1,0-3.9-0.5-5.1-1.1L256.4,261.2z"/>
		<path class="st2" d="M275.9,245.2v4.5h3.5v3.6h-3.5v5.7c0,1.9,0.5,2.8,1.9,2.8c0.6,0,1.1-0.1,1.4-0.1l0,3.7
			c-0.6,0.3-1.8,0.4-3.2,0.4c-1.6,0-2.9-0.5-3.7-1.4c-0.9-0.9-1.4-2.4-1.4-4.7v-6.4H269v-3.6h2.1v-3.4L275.9,245.2z"/>
		<path class="st2" d="M295.6,248.5h-8.1l-0.5,3.2c0.5-0.1,0.8-0.1,1.4-0.1c2,0,4,0.5,5.5,1.5c1.6,1.1,2.5,2.8,2.5,5.2
			c0,3.9-3.3,7.3-9,7.3c-2.5,0-4.7-0.6-5.8-1.2l0.9-3.7c0.9,0.5,2.8,1,4.7,1c2,0,4.2-1,4.2-3.2c0-2.2-1.7-3.5-5.9-3.5
			c-1.2,0-2,0.1-2.8,0.2l1.4-11h11.5V248.5z"/>
	</g>
	<path class="st3" d="M477.5,329.2H355c-6.6,0-12-5.4-12-12V194.8c0-6.6,5.4-12,12-12h122.5c6.6,0,12,5.4,12,12v122.5
		C489.5,323.8,484.1,329.2,477.5,329.2z"/>
	<g>
		<path class="st2" d="M381.1,243.7v8.3h8.1v-8.3h4.9v21.7h-4.9v-9.1h-8.1v9.1h-4.9v-21.7H381.1z"/>
		<path class="st2" d="M413.7,257.4c0,5.8-4.1,8.4-8.3,8.4c-4.6,0-8.1-3-8.1-8.1s3.3-8.3,8.4-8.3
			C410.4,249.4,413.7,252.7,413.7,257.4z M402.3,257.6c0,2.7,1.1,4.7,3.2,4.7c1.9,0,3.1-1.9,3.1-4.7c0-2.4-0.9-4.7-3.1-4.7
			C403.1,252.8,402.3,255.2,402.3,257.6z"/>
		<path class="st2" d="M416.7,261.2c0.9,0.5,2.8,1.2,4.2,1.2c1.5,0,2.1-0.5,2.1-1.3s-0.5-1.2-2.3-1.8c-3.3-1.1-4.5-2.9-4.5-4.7
			c0-2.9,2.5-5.2,6.4-5.2c1.8,0,3.5,0.4,4.4,0.9l-0.9,3.4c-0.7-0.4-2.1-0.9-3.4-0.9c-1.2,0-1.9,0.5-1.9,1.3c0,0.7,0.6,1.1,2.5,1.8
			c3,1,4.2,2.5,4.3,4.9c0,2.9-2.3,5.1-6.8,5.1c-2.1,0-3.9-0.5-5.1-1.1L416.7,261.2z"/>
		<path class="st2" d="M436.1,245.2v4.5h3.5v3.6h-3.5v5.7c0,1.9,0.5,2.8,1.9,2.8c0.6,0,1.1-0.1,1.4-0.1l0,3.7
			c-0.6,0.3-1.8,0.4-3.2,0.4c-1.6,0-2.9-0.5-3.7-1.4c-0.9-0.9-1.4-2.4-1.4-4.7v-6.4h-2.1v-3.6h2.1v-3.4L436.1,245.2z"/>
		<path class="st2" d="M455.2,248c-0.5,0-1.1,0-1.9,0.1c-4.3,0.4-6.3,2.6-6.8,5h0.1c1-1.1,2.5-1.7,4.4-1.7c3.5,0,6.5,2.5,6.5,6.8
			c0,4.2-3.2,7.6-7.7,7.6c-5.6,0-8.3-4.2-8.3-9.1c0-3.9,1.4-7.2,3.7-9.3c2.1-1.9,4.8-2.9,8.1-3.1c0.9-0.1,1.5-0.1,2,0V248z
			 M452.5,258.5c0-1.9-1-3.6-3.1-3.6c-1.3,0-2.4,0.8-2.9,1.9c-0.1,0.3-0.2,0.6-0.2,1.2c0.1,2.2,1.2,4.2,3.4,4.2
			C451.5,262.2,452.5,260.6,452.5,258.5z"/>
	</g>
	<path class="st1" d="M157,490.3H34.5c-6.6,0-12-5.4-12-12V355.8c0-6.6,5.4-12,12-12H157c6.6,0,12,5.4,12,12v122.5
		C169,484.9,163.6,490.3,157,490.3z"/>
	<g>
		<path class="st2" d="M60.7,404.8v8.3h8.1v-8.3h4.9v21.7h-4.9v-9.1h-8.1v9.1h-4.9v-21.7H60.7z"/>
		<path class="st2" d="M93.2,418.4c0,5.8-4.1,8.4-8.3,8.4c-4.6,0-8.1-3-8.1-8.1c0-5.1,3.3-8.3,8.4-8.3
			C90,410.4,93.2,413.7,93.2,418.4z M81.8,418.6c0,2.7,1.1,4.7,3.2,4.7c1.9,0,3.1-1.9,3.1-4.7c0-2.4-0.9-4.7-3.1-4.7
			C82.7,413.9,81.8,416.3,81.8,418.6z"/>
		<path class="st2" d="M96.2,422.2c0.9,0.5,2.8,1.2,4.2,1.2c1.5,0,2.1-0.5,2.1-1.3c0-0.8-0.5-1.2-2.3-1.8c-3.3-1.1-4.5-2.9-4.5-4.7
			c0-2.9,2.5-5.2,6.4-5.2c1.8,0,3.5,0.4,4.4,0.9l-0.9,3.4c-0.7-0.4-2.1-0.9-3.4-0.9c-1.2,0-1.9,0.5-1.9,1.3c0,0.7,0.6,1.1,2.5,1.8
			c3,1,4.2,2.5,4.3,4.9c0,2.9-2.3,5.1-6.8,5.1c-2.1,0-3.9-0.5-5.1-1.1L96.2,422.2z"/>
		<path class="st2" d="M115.7,406.2v4.5h3.5v3.6h-3.5v5.7c0,1.9,0.5,2.8,1.9,2.8c0.6,0,1.1-0.1,1.4-0.1l0,3.7
			c-0.6,0.3-1.8,0.4-3.2,0.4c-1.6,0-2.9-0.5-3.7-1.4c-0.9-0.9-1.4-2.4-1.4-4.7v-6.4h-2.1v-3.6h2.1v-3.4L115.7,406.2z"/>
		<path class="st2" d="M136.4,405.6v3.1l-8.6,17.8h-5.2l8.6-16.8v-0.1h-9.6v-4H136.4z"/>
	</g>
	<path class="st1" d="M317.2,490.3H194.8c-6.6,0-12-5.4-12-12V355.8c0-6.6,5.4-12,12-12h122.5c6.6,0,12,5.4,12,12v122.5
		C329.2,484.9,323.8,490.3,317.2,490.3z"/>
	<g>
		<path class="st2" d="M220.9,404.8v8.3h8.1v-8.3h4.9v21.7H229v-9.1h-8.1v9.1H216v-21.7H220.9z"/>
		<path class="st2" d="M253.4,418.4c0,5.8-4.1,8.4-8.3,8.4c-4.6,0-8.1-3-8.1-8.1c0-5.1,3.3-8.3,8.4-8.3
			C250.2,410.4,253.4,413.7,253.4,418.4z M242,418.6c0,2.7,1.1,4.7,3.2,4.7c1.9,0,3.1-1.9,3.1-4.7c0-2.4-0.9-4.7-3.1-4.7
			C242.9,413.9,242,416.3,242,418.6z"/>
		<path class="st2" d="M256.4,422.2c0.9,0.5,2.8,1.2,4.2,1.2c1.5,0,2.1-0.5,2.1-1.3c0-0.8-0.5-1.2-2.3-1.8c-3.3-1.1-4.5-2.9-4.5-4.7
			c0-2.9,2.5-5.2,6.4-5.2c1.8,0,3.5,0.4,4.4,0.9l-0.9,3.4c-0.7-0.4-2.1-0.9-3.4-0.9c-1.2,0-1.9,0.5-1.9,1.3c0,0.7,0.6,1.1,2.5,1.8
			c3,1,4.2,2.5,4.3,4.9c0,2.9-2.3,5.1-6.8,5.1c-2.1,0-3.9-0.5-5.1-1.1L256.4,422.2z"/>
		<path class="st2" d="M275.9,406.2v4.5h3.5v3.6h-3.5v5.7c0,1.9,0.5,2.8,1.9,2.8c0.6,0,1.1-0.1,1.4-0.1l0,3.7
			c-0.6,0.3-1.8,0.4-3.2,0.4c-1.6,0-2.9-0.5-3.7-1.4c-0.9-0.9-1.4-2.4-1.4-4.7v-6.4H269v-3.6h2.1v-3.4L275.9,406.2z"/>
		<path class="st2" d="M281.3,421c0-2.5,1.4-4.2,3.7-5.2v-0.1c-2-1-3-2.7-3-4.6c0-3.5,3.2-5.9,7.4-5.9c4.9,0,6.9,2.8,6.9,5.4
			c0,1.8-1,3.6-3,4.6v0.1c2,0.8,3.8,2.5,3.8,5.2c0,3.8-3.2,6.3-8,6.3C283.8,426.8,281.3,423.8,281.3,421z M292.1,420.9
			c0-1.8-1.4-2.9-3.3-3.4c-1.6,0.5-2.5,1.6-2.5,3.1c0,1.5,1.1,2.9,3,2.9C291,423.5,292.1,422.3,292.1,420.9z M286.6,410.9
			c0,1.4,1.3,2.3,3,2.8c1.1-0.3,2.1-1.4,2.1-2.7c0-1.3-0.7-2.6-2.5-2.6C287.5,408.5,286.6,409.6,286.6,410.9z"/>
	</g>
	<path class="st1" d="M477.5,490.3H355c-6.6,0-12-5.4-12-12V355.8c0-6.6,5.4-12,12-12h122.5c6.6,0,12,5.4,12,12v122.5
		C489.5,484.9,484.1,490.3,477.5,490.3z"/>
	<g>
		<path class="st2" d="M381.1,404.8v8.3h8.1v-8.3h4.9v21.7h-4.9v-9.1h-8.1v9.1h-4.9v-21.7H381.1z"/>
		<path class="st2" d="M413.7,418.4c0,5.8-4.1,8.4-8.3,8.4c-4.6,0-8.1-3-8.1-8.1c0-5.1,3.3-8.3,8.4-8.3
			C410.4,410.4,413.7,413.7,413.7,418.4z M402.3,418.6c0,2.7,1.1,4.7,3.2,4.7c1.9,0,3.1-1.9,3.1-4.7c0-2.4-0.9-4.7-3.1-4.7
			C403.1,413.9,402.3,416.3,402.3,418.6z"/>
		<path class="st2" d="M416.7,422.2c0.9,0.5,2.8,1.2,4.2,1.2c1.5,0,2.1-0.5,2.1-1.3c0-0.8-0.5-1.2-2.3-1.8c-3.3-1.1-4.5-2.9-4.5-4.7
			c0-2.9,2.5-5.2,6.4-5.2c1.8,0,3.5,0.4,4.4,0.9l-0.9,3.4c-0.7-0.4-2.1-0.9-3.4-0.9c-1.2,0-1.9,0.5-1.9,1.3c0,0.7,0.6,1.1,2.5,1.8
			c3,1,4.2,2.5,4.3,4.9c0,2.9-2.3,5.1-6.8,5.1c-2.1,0-3.9-0.5-5.1-1.1L416.7,422.2z"/>
		<path class="st2" d="M436.1,406.2v4.5h3.5v3.6h-3.5v5.7c0,1.9,0.5,2.8,1.9,2.8c0.6,0,1.1-0.1,1.4-0.1l0,3.7
			c-0.6,0.3-1.8,0.4-3.2,0.4c-1.6,0-2.9-0.5-3.7-1.4c-0.9-0.9-1.4-2.4-1.4-4.7v-6.4h-2.1v-3.6h2.1v-3.4L436.1,406.2z"/>
		<path class="st2" d="M443.4,422.9c0.6,0.1,1.2,0.1,2.1,0c1.5-0.1,3-0.5,4.1-1.3c1.4-0.9,2.3-2.3,2.6-3.9l-0.1,0
			c-0.9,1-2.3,1.5-4.2,1.5c-3.5,0-6.5-2.5-6.5-6.5c0-4.1,3.3-7.5,7.9-7.5c5.4,0,7.9,4.1,7.9,9c0,4.3-1.4,7.5-3.7,9.6
			c-2,1.8-4.7,2.8-8,2.9c-0.8,0.1-1.7,0-2.2,0V422.9z M446.4,412.5c0,1.8,1,3.3,3,3.3c1.3,0,2.3-0.6,2.7-1.4
			c0.2-0.3,0.3-0.6,0.3-1.2c0-2.2-0.8-4.4-3.1-4.4C447.6,408.8,446.3,410.3,446.4,412.5z"/>
	</g>
</g>
</svg>
